# xmcd
#
# Track frame offsets:
#	151
#	12489
#	25604
#	37593
#	51919
#	78925
#	94477
#	113342
#	127527
#	146972
#	159254
#	173771
#	186822
#	199766
#	213894
#	225022
#	248502
#	259194
#	274892
#	291371
#	305478
#	328117
#	328960
#	329873
#
# Disc length: 4521 seconds
#
# Revision: 1
# Processed by: cddbd v1.5.2PL0 Copyright (c) Steve Scherf et al.
# Submitted via: audiograbber 1.83.01
#
DISCID=4a11a718
DTITLE=Andrew Dean - Memories of Christmas and Winter wonderland
DYEAR=1900
DGENRE=
TTITLE0=Joy To The World
TTITLE1=Home For The Holl
TTITLE2=Do You See What I See
TTITLE3=Silent Night
TTITLE4=Breath Of Heaven
TTITLE5=God Rest Ye Merry Gentlemen
TTITLE6=It Came Upon A Midnight Clear
TTITLE7=I´ll Be Home For Christmas
TTITLE8=O Little Town Of Bethlehem
TTITLE9=It´s Beginning To Look A Lot Like Christmas
TTITLE10=We Wish You A Merry Christmas
TTITLE11=Jolly Old Saint Nicholas
TTITLE12=Let It Snow
TTITLE13=White Christmas
TTITLE14=The Christmas Song
TTITLE15=O Holy Night
TTITLE16=Winter Wonderland
TTITLE17=What A Child It Is
TTITLE18=Have Yourself A Merry Little Christmas
TTITLE19=Santa Claus Comming To Town
TTITLE20=Merry Christmas Baby
TTITLE21=Grettings # 1
TTITLE22=Grettings # 2
TTITLE23=Jenny´s Gift
EXTD=
EXTT0=
EXTT1=
EXTT2=
EXTT3=
EXTT4=
EXTT5=
EXTT6=
EXTT7=
EXTT8=
EXTT9=
EXTT10=
EXTT11=
EXTT12=
EXTT13=
EXTT14=
EXTT15=
EXTT16=
EXTT17=
EXTT18=
EXTT19=
EXTT20=
EXTT21=
EXTT22=
EXTT23=
PLAYORDER=
